<svg xmlns="http://www.w3.org/2000/svg" width="512" height="512"><rect width="512" height="512" fill="#2b2b2b" ry="75"/><path fill="#fff" d="M120 124q22 0 38 8 17 8 31 23l-21 25q-12-11-23-16-10-5-22-5-14 0-22 9-8 8-8 22t9 23q8 8 32 18 31 13 46 30t15 48q0 21-10 39-10 17-28 28-18 10-43 10t-43-9q-19-9-34-25l23-26q13 12 25 18t26 6q17 0 26-10 10-10 10-28 0-16-9-26-8-10-30-18-33-14-48-31t-15-44q0-20 10-35 10-16 27-24 17-10 38-10zm155 220q0 39-17 59-17 21-48 33l-12-33q13-7 20-14 6-8 8-18 3-11 3-29V130h46zm154 36V268h-65v112h-46V130h46v101h65V130h46v250z"/></svg>