<svg xmlns="http://www.w3.org/2000/svg" width="512" height="512"><rect width="512" height="512" fill="#2b2b2b" ry="75"/><path fill="#fff" d="M99 107q25 0 44 8 19 9 35 26l-24 28q-13-11-26-17-12-6-25-6-16 0-25 10t-9 25q0 16 9 26 10 10 38 21 35 14 52 34 17 19 17 55 0 24-11 44-12 20-33 32-20 11-48 11-29 0-50-10T5 365l26-29q15 14 29 21t30 7q19 0 29-12 11-12 11-32 0-18-10-29-9-12-34-21-38-15-55-35t-17-50q0-23 11-40 11-18 31-28 19-10 43-10zm177 250q0 44-19 67-20 23-55 37l-14-37q15-8 23-16 7-9 10-21 2-12 2-32V112h53zm175 41V270h-74v128h-53V112h53v116h74V112h53v286Z"/></svg>