<svg xmlns="http://www.w3.org/2000/svg" width="500" height="500"><rect width="500" height="500" fill="#2b2b2b" ry="75"/><path fill="#fff" d="M438 389V264h-72v125h-51V112h51v111h72V112h51v277zm-170-40q0 43-19 65t-53 36l-13-36q14-8 22-16 7-8 9-20 3-11 3-31V112h51zM96 106q24 0 43 8 18 9 34 26l-24 27q-12-11-24-17t-25-6q-15 0-24 10-9 9-9 25 0 15 9 24 10 10 36 20 35 15 51 33 16 19 16 54 0 23-10 43-11 19-32 30-20 12-47 12t-48-10q-20-10-37-28l26-28q14 13 27 20 14 6 29 6 19 0 29-11t10-31q0-17-9-28t-33-21q-37-14-54-34-16-19-16-48 0-22 11-39 10-17 29-27t42-10z"/></svg>