<?xml version="1.0" encoding="UTF-8" standalone="no"?>
<!-- Created with Inkscape (http://www.inkscape.org/) -->

<svg
   width="512"
   height="512"
   viewBox="0 0 512 512"
   version="1.1"
   id="svg5"
   inkscape:version="1.2.2 (732a01da63, 2022-12-09)"
   sodipodi:docname="favicon.svg"
   inkscape:export-filename="inkscape_favicon_flat.svg"
   inkscape:export-xdpi="96"
   inkscape:export-ydpi="96"
   xmlns:inkscape="http://www.inkscape.org/namespaces/inkscape"
   xmlns:sodipodi="http://sodipodi.sourceforge.net/DTD/sodipodi-0.dtd"
   xmlns="http://www.w3.org/2000/svg"
   xmlns:svg="http://www.w3.org/2000/svg">
  <sodipodi:namedview
     id="namedview7"
     pagecolor="#505050"
     bordercolor="#ffffff"
     borderopacity="1"
     inkscape:showpageshadow="0"
     inkscape:pageopacity="0"
     inkscape:pagecheckerboard="1"
     inkscape:deskcolor="#505050"
     inkscape:document-units="mm"
     showgrid="false"
     inkscape:zoom="1.4142136"
     inkscape:cx="309.35922"
     inkscape:cy="286.37825"
     inkscape:window-width="1920"
     inkscape:window-height="1017"
     inkscape:window-x="-8"
     inkscape:window-y="-8"
     inkscape:window-maximized="1"
     inkscape:current-layer="layer1" />
  <defs
     id="defs2" />
  <g
     inkscape:label="Layer 1"
     inkscape:groupmode="layer"
     id="layer1">
    <rect
       style="fill:#2b2b2b;fill-opacity:1;stroke-width:1.04232"
       id="rect113"
       width="512"
       height="512"
       x="0"
       y="0"
       ry="75.000946"
       inkscape:label="Rounded Rectangle" />
    <g
       aria-label="SJH"
       id="text1007"
       style="font-weight:500;font-stretch:ultra-condensed;font-size:362.898px;font-family:'Fira Sans Extra Condensed';-inkscape-font-specification:'Fira Sans Extra Condensed,  Medium Ultra-Condensed';fill:#ffff00;stroke-width:1.00805"
       inkscape:label="SJH">
      <path
         d="m 119.73192,124.49821 q 21.77388,0 38.46719,7.62086 16.69331,7.62086 30.84633,22.86257 l -21.41098,24.67707 q -11.24984,-10.16115 -22.13678,-15.24172 -10.52404,-5.08057 -22.49968,-5.08057 -13.79012,0 -21.77388,8.70955 -7.983753,8.34666 -7.983753,22.13678 0,13.79013 8.346653,22.49968 8.34666,8.70955 32.66082,18.1449 31.20923,12.70143 45.72515,29.75764 14.87882,17.0562 14.87882,48.26543 0,21.41098 -9.79825,39.19299 -9.79824,17.4191 -28.30604,27.58024 -18.1449,10.16115 -42.45907,10.16115 -25.039961,0 -43.547759,-8.70955 -18.507799,-9.07245 -33.749515,-25.40286 l 23.225472,-25.40286 q 13.064329,11.61273 25.039963,17.782 11.975634,6.16926 26.128659,6.16926 16.69331,0 25.76576,-10.16114 9.43534,-10.52404 9.43534,-28.30605 0,-15.60461 -8.34665,-25.40286 -7.98376,-10.16114 -30.12053,-18.50779 -33.386621,-13.42723 -48.26544,-30.84634 -14.51592,-17.4191 -14.51592,-43.54776 0,-19.95939 9.435348,-35.564 9.798246,-15.60462 26.854453,-24.31417 17.056206,-9.07245 38.104289,-9.07245 z"
         style="fill:#ffffff"
         id="path1070"
         inkscape:label="S" />
      <path
         d="m 275.05214,344.05151 q 0,39.19298 -17.05621,59.15237 -17.05621,20.32229 -47.90254,32.29793 l -12.33853,-32.66082 q 13.42723,-6.53217 19.95939,-14.15303 6.53217,-7.25796 8.70955,-17.782 2.17739,-10.52404 2.17739,-28.66894 V 129.57878 h 46.45095 z"
         style="fill:#ffffff"
         id="path1072"
         inkscape:label="J" />
      <path
         d="M 428.55788,380.34131 V 267.84293 H 363.59913 V 380.34131 H 317.51109 V 129.57878 h 46.08804 v 101.24855 h 64.95875 V 129.57878 h 46.45094 v 250.76253 z"
         style="fill:#ffffff"
         id="path1074"
         inkscape:label="H" />
    </g>
  </g>
</svg>
