<?xml version="1.0" encoding="UTF-8" standalone="no"?>
<!-- Created with Inkscape (http://www.inkscape.org/) -->

<svg
   width="512"
   height="512"
   viewBox="0 0 512 512"
   version="1.1"
   id="svg5"
   inkscape:version="1.2.2 (732a01da63, 2022-12-09)"
   sodipodi:docname="favicon.svg"
   inkscape:export-filename="inkscape_favicon_flat.svg"
   inkscape:export-xdpi="96"
   inkscape:export-ydpi="96"
   xmlns:inkscape="http://www.inkscape.org/namespaces/inkscape"
   xmlns:sodipodi="http://sodipodi.sourceforge.net/DTD/sodipodi-0.dtd"
   xmlns="http://www.w3.org/2000/svg"
   xmlns:svg="http://www.w3.org/2000/svg">
  <sodipodi:namedview
     id="namedview7"
     pagecolor="#505050"
     bordercolor="#ffffff"
     borderopacity="1"
     inkscape:showpageshadow="0"
     inkscape:pageopacity="0"
     inkscape:pagecheckerboard="1"
     inkscape:deskcolor="#505050"
     inkscape:document-units="mm"
     showgrid="false"
     inkscape:zoom="2.0000001"
     inkscape:cx="229.24999"
     inkscape:cy="267.99999"
     inkscape:window-width="1920"
     inkscape:window-height="1017"
     inkscape:window-x="-8"
     inkscape:window-y="-8"
     inkscape:window-maximized="1"
     inkscape:current-layer="layer1" />
  <defs
     id="defs2" />
  <g
     inkscape:label="Layer 1"
     inkscape:groupmode="layer"
     id="layer1">
    <rect
       style="fill:#2b2b2b;fill-opacity:1;stroke-width:1.04232"
       id="rect113"
       width="512"
       height="512"
       x="0"
       y="0"
       ry="75.000946"
       inkscape:label="Rounded Rectangle" />
    <g
       aria-label="SJH"
       transform="translate(-6)"
       id="text1016"
       style="font-weight:500;font-stretch:ultra-condensed;font-size:363.25px;font-family:'Fira Sans Extra Condensed';-inkscape-font-specification:'Fira Sans Extra Condensed,  Medium Ultra-Condensed';fill:#ffffff;stroke-width:1.01717"
       inkscape:label="SJH">
      <path
         d="m 119.43512,124.46853 q 21.795,0 38.5045,7.62825 16.7095,7.62825 30.87625,22.88475 l -21.43175,24.701 q -11.26075,-10.171 -22.15825,-15.2565 -10.53425,-5.0855 -22.5215,-5.0855 -13.8035,0 -21.795,8.718 -7.991497,8.35475 -7.991497,22.15825 0,13.8035 8.354747,22.5215 8.35475,8.718 32.6925,18.1625 31.2395,12.71375 45.7695,29.7865 14.89325,17.07275 14.89325,48.31225 0,21.43175 -9.80775,39.231 -9.80775,17.436 -28.3335,27.607 -18.1625,10.171 -42.50025,10.171 -25.064247,0 -43.589997,-8.718 -18.52575,-9.08125 -33.78225,-25.4275 l 23.248,-25.4275 q 13.077,11.624 25.06425,17.79925 11.98725,6.17525 26.153997,6.17525 16.7095,0 25.79075,-10.171 9.4445,-10.53425 9.4445,-28.3335 0,-15.61975 -8.35475,-25.4275 -7.9915,-10.171 -30.14975,-18.52575 -33.418997,-13.44025 -48.312247,-30.87625 -14.53,-17.436 -14.53,-43.59 0,-19.97875 9.4445,-35.5985 9.80775,-15.61975 26.8805,-24.33775 17.07275,-9.08125 38.141247,-9.08125 z"
         id="path1172"
         inkscape:label="S" />
      <path
         d="m 274.90599,344.23478 q 0,39.231 -17.07275,59.20975 -17.07275,20.342 -47.949,32.32925 l -12.3505,-32.6925 q 13.44025,-6.5385 19.97875,-14.16675 6.5385,-7.265 8.718,-17.79925 2.1795,-10.53425 2.1795,-28.69675 v -212.8645 h 46.496 z"
         id="path1174"
         inkscape:label="J" />
      <path
         d="m 428.56061,380.55978 v -112.6075 h -65.02175 v 112.6075 H 317.40611 V 129.55403 h 46.13275 v 101.34675 h 65.02175 V 129.55403 h 46.496 v 251.00575 z"
         id="path1176"
         inkscape:label="H" />
    </g>
  </g>
</svg>
