<?xml version="1.0" encoding="UTF-8" standalone="no"?>
<!-- Created with Inkscape (http://www.inkscape.org/) -->

<svg
   width="500"
   height="500"
   viewBox="0 0 500 500"
   version="1.1"
   id="svg5"
   inkscape:version="1.2.2 (732a01da63, 2022-12-09)"
   sodipodi:docname="inkscape_favicon.svg"
   inkscape:export-filename="inkscape_favicon_flat.svg"
   inkscape:export-xdpi="96"
   inkscape:export-ydpi="96"
   xmlns:inkscape="http://www.inkscape.org/namespaces/inkscape"
   xmlns:sodipodi="http://sodipodi.sourceforge.net/DTD/sodipodi-0.dtd"
   xmlns="http://www.w3.org/2000/svg"
   xmlns:svg="http://www.w3.org/2000/svg">
  <sodipodi:namedview
     id="namedview7"
     pagecolor="#505050"
     bordercolor="#ffffff"
     borderopacity="1"
     inkscape:showpageshadow="0"
     inkscape:pageopacity="0"
     inkscape:pagecheckerboard="1"
     inkscape:deskcolor="#505050"
     inkscape:document-units="mm"
     showgrid="false"
     inkscape:zoom="1"
     inkscape:cx="242"
     inkscape:cy="279"
     inkscape:window-width="1920"
     inkscape:window-height="1017"
     inkscape:window-x="-8"
     inkscape:window-y="-8"
     inkscape:window-maximized="1"
     inkscape:current-layer="layer1" />
  <defs
     id="defs2" />
  <g
     inkscape:label="Layer 1"
     inkscape:groupmode="layer"
     id="layer1">
    <rect
       style="fill:#2b2b2b;fill-opacity:1;stroke-width:1.01789"
       id="rect113"
       width="500"
       height="500"
       x="0"
       y="0"
       ry="75"
       inkscape:label="Rounded Rectangle" />
    <g
       aria-label="SJH"
       id="text221"
       style="font-size:400.994px;fill:#ffffff;stroke-width:1.50373"
       inkscape:label="SJH">
      <path
         d="M 437.67223,388.70108 V 264.39294 H 365.89431 V 388.70108 H 314.96807 V 111.61423 h 50.92624 v 111.87733 h 71.77792 V 111.61423 h 51.32723 v 277.08685 z"
         style="font-weight:500;font-stretch:ultra-condensed;font-family:'Fira Sans Extra Condensed';-inkscape-font-specification:'Fira Sans Extra Condensed,  Medium Ultra-Condensed'"
         id="path1376"
         inkscape:label="H" />
      <path
         d="m 268.0519,348.60168 q 0,43.30735 -18.84671,65.36202 -18.84672,22.45566 -52.93121,35.68847 l -13.6338,-36.08946 q 14.83678,-7.21789 22.05467,-15.63877 7.2179,-8.01988 9.62386,-19.6487 2.40596,-11.62883 2.40596,-31.67853 V 111.61423 h 51.32723 z"
         style="font-size:400.994px;fill:#ffffff;stroke-width:1.50373;font-weight:500;font-stretch:ultra-condensed;font-family:'Fira Sans Extra Condensed';-inkscape-font-specification:'Fira Sans Extra Condensed,  Medium Ultra-Condensed'"
         id="path1374"
         inkscape:label="J" />
      <path
         d="m 96.426626,106.00032 q 24.059644,0 42.505364,8.42087 18.44572,8.42088 34.08449,25.26262 l -23.65865,27.26759 q -12.43081,-11.22783 -24.46063,-16.84174 -11.62883,-5.61392 -24.86163,-5.61392 -15.23777,0 -24.059637,9.62386 -8.821868,9.22286 -8.821868,24.46063 0,15.23777 9.222861,24.86163 9.222862,9.62385 36.089464,20.0497 34.48548,14.03479 50.52524,32.8815 16.44075,18.84672 16.44075,53.3322 0,23.65865 -10.82684,43.30736 -10.82683,19.24771 -31.27753,30.47554 -20.0497,11.22783 -46.916294,11.22783 -27.668585,0 -48.119278,-9.62386 Q 21.841744,375.06728 4.9999966,357.02256 L 30.663612,328.95298 q 14.435783,12.8318 27.668585,19.6487 13.232802,6.8169 28.871567,6.8169 18.445726,0 28.470576,-11.22783 10.42584,-11.62883 10.42584,-31.27753 0,-17.24274 -9.22286,-28.06958 -8.82187,-11.22783 -33.282502,-20.4507 -36.891447,-14.83677 -53.3322,-34.08448 -16.03976,-19.24772 -16.03976,-48.11928 0,-22.05467 10.425844,-39.29741 10.826838,-17.24275 29.673555,-26.8666 18.846718,-10.02485 42.104369,-10.02485 z"
         style="font-size:400.994px;fill:#ffffff;stroke-width:1.50373;font-weight:500;font-stretch:ultra-condensed;font-family:'Fira Sans Extra Condensed';-inkscape-font-specification:'Fira Sans Extra Condensed,  Medium Ultra-Condensed'"
         id="path1372"
         inkscape:label="S" />
    </g>
  </g>
</svg>
