<?xml version="1.0" encoding="UTF-8" standalone="no"?>
<!-- Created with Inkscape (http://www.inkscape.org/) -->

<svg
   width="512"
   height="512"
   viewBox="0 0 512 512"
   version="1.1"
   id="svg5"
   inkscape:version="1.2.2 (732a01da63, 2022-12-09)"
   sodipodi:docname="favicon.svg"
   inkscape:export-filename="inkscape_favicon_flat.svg"
   inkscape:export-xdpi="96"
   inkscape:export-ydpi="96"
   xmlns:inkscape="http://www.inkscape.org/namespaces/inkscape"
   xmlns:sodipodi="http://sodipodi.sourceforge.net/DTD/sodipodi-0.dtd"
   xmlns="http://www.w3.org/2000/svg"
   xmlns:svg="http://www.w3.org/2000/svg">
  <sodipodi:namedview
     id="namedview7"
     pagecolor="#505050"
     bordercolor="#ffffff"
     borderopacity="1"
     inkscape:showpageshadow="0"
     inkscape:pageopacity="0"
     inkscape:pagecheckerboard="1"
     inkscape:deskcolor="#505050"
     inkscape:document-units="mm"
     showgrid="false"
     inkscape:zoom="1"
     inkscape:cx="179.5"
     inkscape:cy="229"
     inkscape:window-width="1920"
     inkscape:window-height="1017"
     inkscape:window-x="-8"
     inkscape:window-y="-8"
     inkscape:window-maximized="1"
     inkscape:current-layer="layer1" />
  <defs
     id="defs2" />
  <g
     inkscape:label="Layer 1"
     inkscape:groupmode="layer"
     id="layer1">
    <rect
       style="fill:#2b2b2b;fill-opacity:1;stroke-width:1.04232"
       id="rect113"
       width="512"
       height="512"
       x="0"
       y="0"
       ry="75.000946"
       inkscape:label="Rounded Rectangle" />
    <g
       aria-label="SJH"
       id="text302"
       style="font-weight:500;font-stretch:ultra-condensed;font-size:413.333px;font-family:'Fira Sans Extra Condensed';-inkscape-font-specification:'Fira Sans Extra Condensed,  Medium Ultra-Condensed';fill:#ffff00"
       inkscape:label="SJH">
      <path
         d="m 99.133257,106.60023 q 24.799983,0 43.813303,8.67999 19.01331,8.68 35.1333,26.03998 l -24.38665,28.10665 q -12.81332,-11.57333 -25.21331,-17.35999 -11.98666,-5.78666 -25.62665,-5.78666 -15.70665,0 -24.799977,9.91999 -9.093326,9.50666 -9.093326,25.21331 0,15.70666 9.506659,25.62665 9.50666,9.91999 37.199974,20.66665 35.54664,14.46666 52.07996,33.89331 16.94665,19.42665 16.94665,54.97329 0,24.38664 -11.15999,44.63996 -11.15999,19.83999 -32.23998,31.41331 Q 120.62657,404.2 92.933262,404.2 64.413284,404.2 43.333301,394.28 22.253317,383.94668 4.8933311,365.34669 L 31.346644,336.41338 q 14.879988,13.22666 28.519977,20.25332 13.639989,7.02666 29.759977,7.02666 19.013322,0 29.346642,-11.57332 10.74666,-11.98666 10.74666,-32.23998 0,-17.77332 -9.50666,-28.93331 Q 111.11991,279.37343 85.906601,269.86677 47.879964,254.57345 30.933311,234.73346 14.39999,214.89348 14.39999,185.1335 q 0,-22.73331 10.746658,-40.50663 11.159992,-17.77332 30.586643,-27.69332 19.426651,-10.33332 43.399966,-10.33332 z"
         style="fill:#ffffff"
         id="path460"
         inkscape:label="S" />
      <path
         d="m 276.03963,356.6667 q 0,44.63996 -19.42665,67.37328 -19.42665,23.14665 -54.55996,36.78664 L 187.9997,423.62665 q 15.29332,-7.44 22.73331,-16.11999 7.44,-8.26666 9.92,-20.25332 2.47999,-11.98666 2.47999,-32.65331 V 112.38689 h 52.90663 z"
         style="fill:#ffffff"
         id="path462"
         inkscape:label="J" />
      <path
         d="M 450.87937,398 V 269.86677 H 376.89276 V 398 H 324.39947 V 112.38689 h 52.49329 V 227.7068 h 73.98661 V 112.38689 h 52.90662 V 398 Z"
         style="fill:#ffffff"
         id="path464"
         inkscape:label="H" />
    </g>
  </g>
</svg>
