<svg xmlns="http://www.w3.org/2000/svg" width="512" height="512"><rect width="512" height="512" fill="#2b2b2b" ry="75"/><path fill="#fff" d="M113 124q22 0 39 8t31 23l-22 25q-11-10-22-16-10-5-22-5-14 0-22 9-8 8-8 22t8 23q9 8 33 18 31 13 46 30t15 48q0 21-10 39t-29 28q-18 10-42 10-25 0-44-9-18-9-33-25l23-26q13 12 25 18t26 6q17 0 26-10t9-28q0-16-8-26t-30-18q-34-13-49-31-14-17-14-44 0-19 9-35 10-16 27-24 17-10 38-10zm156 220q0 39-17 59-17 21-48 33l-12-33q13-6 20-14 6-7 8-18 2-10 2-29V130h47zm154 37V268h-65v113h-47V130h47v101h65V130h46v251z"/></svg>